<svg xmlns="http://www.w3.org/2000/svg" width="21" height="21" viewBox="0 0 21 21"><defs><style>.a{fill:#fff}</style></defs><path class="a" d="M10.5 0A10.5 10.5 0 1 0 21 10.5 10.512 10.512 0 0 0 10.5 0zm0 19.8a9.3 9.3 0 1 1 9.3-9.3 9.309 9.309 0 0 1-9.3 9.3z"/><path class="a" d="M13.012 4.96h-1.471a2.123 2.123 0 0 0-2.183 2.048v1.555h-1.37a.584.584 0 1 0 0 1.166h1.37v5.4a.622.622 0 0 0 1.241 0v-5.4h2.12a.584.584 0 1 0 0-1.166h-2.12V7.008a.916.916 0 0 1 .942-.885h1.471a.584.584 0 1 0 0-1.166z"/></svg>