<svg xmlns="http://www.w3.org/2000/svg" width="21" height="21" viewBox="0 0 21 21"><defs><style>.a{fill:#fff}</style></defs><path class="a" d="M10.5 0A10.5 10.5 0 1 0 21 10.5 10.512 10.512 0 0 0 10.5 0zm0 19.8a9.3 9.3 0 1 1 9.3-9.3 9.309 9.309 0 0 1-9.3 9.3z"/><path class="a" d="M14.101 5.648h-7.2a1.2 1.2 0 0 0-1.194 1.2v7.31a1.2 1.2 0 0 0 1.194 1.2h7.2a1.2 1.2 0 0 0 1.194-1.2v-7.31a1.2 1.2 0 0 0-1.194-1.2zm.063 8.507a.063.063 0 0 1-.063.063h-7.2a.063.063 0 0 1-.063-.063v-7.31a.063.063 0 0 1 .063-.063h7.2a.063.063 0 0 1 .063.063z"/><path class="a" d="M12.078 7.366h1.655v1.518h-1.655z"/><circle class="a" cx="1.632" cy="1.632" r="1.632" transform="translate(8.868 9.362)"/><path class="a" d="M13.102 10.779a2.6 2.6 0 0 1-5.2 0v-1.16H6.738v4.316h7.526V9.619H13.11z"/></svg>