<svg xmlns="http://www.w3.org/2000/svg" width="17.76" height="24.42" viewBox="0 0 17.76 24.42"><defs><style>.a{fill:#7b7373}</style></defs><path class="a" d="M17.399 24.42H.36a.359.359 0 0 1-.261-.112.366.366 0 0 1-.1-.267L.812 6.915a.361.361 0 0 1 .361-.345h15.415a.362.362 0 0 1 .361.345l.811 17.125a.362.362 0 0 1-.361.38zM.738 23.695H17.02l-.776-16.4H1.512z"/><path class="a" d="M13.12 8.923a.392.392 0 0 1-.392-.392v-3.9a3.85 3.85 0 1 0-7.7 0v3.9a.392.392 0 1 1-.784 0v-3.9a4.633 4.633 0 1 1 9.265 0v3.9a.392.392 0 0 1-.389.392z"/></svg>