<svg xmlns="http://www.w3.org/2000/svg"><defs><symbol id="icon-shopping-bag" viewBox="0 0 23 32"><path d="M22.8 32H.471a.467.467 0 0 1-.341-.147.48.48 0 0 1-.131-.33v-.021.001L1.064 9.061a.474.474 0 0 1 .473-.452h20.2c.254 0 .461.2.473.451v.001l1.063 22.441.001.024A.474.474 0 0 1 22.8 32zM.967 31.05h21.336L21.286 9.559H1.981z"/><path d="M17.192 11.693a.514.514 0 0 1-.514-.514V6.068a5.045 5.045 0 0 0-10.09 0v5.111a.514.514 0 1 1-1.028 0V6.068a6.07 6.07 0 1 1 12.14 0v5.111a.515.515 0 0 1-.51.514z"/></symbol><symbol id="icon-search" viewBox="0 0 32 32"><path d="M23.734 12.533c0-6.156-4.99-11.146-11.146-11.146S1.442 6.377 1.442 12.533c0 6.156 4.99 11.146 11.146 11.146h.004c6.153 0 11.142-4.988 11.142-11.142v-.005zM32 31.039l-.959.959-10.133-10.133a12.463 12.463 0 0 1-8.36 3.2c-6.915 0-12.52-5.605-12.52-12.52S5.633.025 12.548.025c6.915 0 12.52 5.605 12.52 12.52 0 3.219-1.215 6.153-3.21 8.371l.01-.011z"/></symbol><symbol id="icon-star" viewBox="0 0 34 32"><path d="M6.785 31.999a.6.6 0 0 1-.592-.707l-.001.004 1.852-10.83-7.864-7.67a.6.6 0 0 1 .33-1.024h.003l10.874-1.581L16.251.337c.1-.2.304-.335.538-.335h.001c.234 0 .437.135.536.331l.002.003 4.86 9.854 10.874 1.581a.601.601 0 0 1 .333 1.025l-7.869 7.67 1.857 10.83a.6.6 0 0 1-.875.632l.003.002-9.732-5.113-9.732 5.113a.597.597 0 0 1-.262.07h-.001zM1.893 12.784l7.223 7.041a.599.599 0 0 1 .172.536l.001-.004-1.705 9.941 8.929-4.694a.597.597 0 0 1 .563.002l-.003-.002 8.928 4.694-1.704-9.948a.597.597 0 0 1 .172-.532l7.223-7.041-9.982-1.444a.603.603 0 0 1-.451-.325l-.002-.003-4.464-9.045-4.465 9.047a.601.601 0 0 1-.45.328h-.003z"/></symbol><symbol id="icon-user" viewBox="0 0 32 32"><path d="M32 16v-.008c0-8.837-7.163-16-16-16s-16 7.163-16 16c0 4.665 1.996 8.863 5.181 11.788l.012.011-.015.013.513.437c.033.028.071.051.104.079.276.228.561.446.852.656.095.068.188.136.284.202q.466.322.955.61l.214.128c.356.202.722.395 1.094.57l.082.037c1.117.533 2.414.958 3.773 1.21l.098.015.108.019c.422.073.847.128 1.282.17l.158.013c.429.036.864.058 1.303.058s.866-.023 1.293-.056l.163-.013q.641-.059 1.267-.167l.109-.019a15.769 15.769 0 0 0 3.912-1.237l-.097.041.128-.06q.538-.256 1.053-.545l.256-.147c.313-.185.62-.377.92-.582.108-.073.213-.151.319-.228.256-.183.506-.373.75-.572.054-.044.113-.082.165-.128l.532-.445-.015-.013c3.229-2.931 5.248-7.145 5.248-11.831v-.009zM1.164 16v-.012C1.164 7.794 7.806 1.152 16 1.152s14.836 6.642 14.836 14.836a14.8 14.8 0 0 1-4.982 11.091l-.015.013a4.277 4.277 0 0 0-.495-.301l-.024-.011-4.926-2.463a1.29 1.29 0 0 1-.716-1.153v-1.726c.114-.141.235-.3.359-.475a11.718 11.718 0 0 0 1.497-2.898l.025-.083a2.116 2.116 0 0 0 1.214-1.911v-2.065a2.115 2.115 0 0 0-.515-1.382l.002.003V9.913a4.673 4.673 0 0 0-1.102-3.418l.006.007a6.529 6.529 0 0 0-5.185-1.843l.026-.002a6.528 6.528 0 0 0-5.166 1.844l.001-.001a4.667 4.667 0 0 0-1.1 3.43l-.001-.017v2.714a2.11 2.11 0 0 0-.513 1.379v2.063c0 .66.302 1.25.775 1.638l.004.003a10.96 10.96 0 0 0 1.814 3.745l-.02-.028v1.684c0 .489-.271.915-.67 1.136l-.007.003-4.588 2.511c-.17.094-.312.185-.449.285l.012-.008c-3.035-2.722-4.935-6.656-4.935-11.033v-.001zm23.539 12.004q-.305.222-.62.428c-.096.063-.192.128-.291.187-.274.17-.554.332-.839.483l-.19.097c-.561.297-1.232.587-1.926.827l-.104.031-.074.026q-.547.182-1.107.322c-.377.094-.759.17-1.143.235h-.032c-.361.059-.725.101-1.091.128l-.195.014c-.361.027-.724.045-1.089.045s-.737-.018-1.102-.045l-.19-.014a14.423 14.423 0 0 1-1.1-.136l-.051-.004a14.744 14.744 0 0 1-2.367-.596l.104.031-.069-.023q-.549-.187-1.083-.415h-.008a15.522 15.522 0 0 1-.992-.474l-.128-.065a13.777 13.777 0 0 1-.875-.513l-.256-.163a14.254 14.254 0 0 1-.778-.543l-.077-.06.056-.032 4.601-2.509a2.465 2.465 0 0 0 1.282-2.16v-2.089l-.128-.161a9.653 9.653 0 0 1-1.731-3.549l-.014-.067-.053-.231-.199-.128a.963.963 0 0 1-.447-.81v-2.069a.947.947 0 0 1 .323-.71l.001-.001.192-.173V9.801a3.487 3.487 0 0 1 .817-2.541l-.004.005a5.46 5.46 0 0 1 4.298-1.445l-.023-.002a5.476 5.476 0 0 1 4.277 1.438l-.004-.003a3.543 3.543 0 0 1 .821 2.561l.001-.012v3.317l.192.173a.948.948 0 0 1 .324.711v2.062a.972.972 0 0 1-.68.914l-.007.002-.29.088-.094.288a10.8 10.8 0 0 1-1.474 2.962l.022-.033a7.184 7.184 0 0 1-.428.552l-.145.164v2.161c0 .955.547 1.783 1.346 2.185l.014.006 5.02 2.512c-.067.049-.131.092-.194.137z"/></symbol></defs></svg>