<svg xmlns="http://www.w3.org/2000/svg"><defs><symbol id="icon-instagram" viewBox="0 0 32 32"><path d="M16 0C7.163 0 0 7.163 0 16s7.163 16 16 16 16-7.163 16-16C31.99 7.168 24.832.01 16.001 0H16zm0 30.171C8.173 30.171 1.829 23.826 1.829 16S8.174 1.829 16 1.829c7.827 0 14.171 6.345 14.171 14.171-.008 7.824-6.348 14.164-14.171 14.171h-.001z"/><path d="M21.487 8.606H10.516a1.828 1.828 0 0 0-1.819 1.829v11.139c0 1.007.813 1.823 1.819 1.829h10.972a1.828 1.828 0 0 0 1.819-1.829V10.435a1.829 1.829 0 0 0-1.819-1.829zm.096 12.964a.096.096 0 0 1-.096.096H10.516a.096.096 0 0 1-.096-.096V10.431c0-.053.043-.096.096-.096h10.971c.053 0 .096.043.096.096z"/><path d="M18.405 11.224h2.522v2.313h-2.522v-2.313zm.082 5.529a2.487 2.487 0 1 1-4.974 0 2.487 2.487 0 0 1 4.974 0z"/><path d="M19.965 16.425a3.962 3.962 0 0 1-7.924 0v-1.768h-1.774v6.577h11.468v-6.577h-1.758z"/></symbol><symbol id="icon-facebook" viewBox="0 0 32 32"><path d="M16 0C7.163 0 0 7.163 0 16s7.163 16 16 16 16-7.163 16-16C31.99 7.168 24.832.01 16.001 0H16zm0 30.171C8.173 30.171 1.829 23.826 1.829 16S8.174 1.829 16 1.829c7.827 0 14.171 6.345 14.171 14.171-.008 7.824-6.348 14.164-14.171 14.171h-.001z"/><path d="M19.828 7.558h-2.242l-.093-.001a3.235 3.235 0 0 0-3.233 3.116v2.376h-2.088a.89.89 0 1 0 .003 1.776h-.002 2.088v8.229a.948.948 0 0 0 1.891.003v-8.232h3.23a.89.89 0 1 0-.003-1.776h.002-3.23v-2.37a1.396 1.396 0 0 1 1.437-1.348h-.002 2.242a.89.89 0 1 0-.003-1.776h.002z"/></symbol></defs></svg>