<svg xmlns="http://www.w3.org/2000/svg" width="25.88" height="24.66" viewBox="0 0 25.88 24.66"><path d="M5.229 24.659a.463.463 0 0 1-.456-.542L6.2 15.771.14 9.86a.463.463 0 0 1 .257-.79l8.38-1.218L12.525.258A.463.463 0 0 1 12.94 0a.461.461 0 0 1 .415.258L17.1 7.852l8.38 1.218a.463.463 0 0 1 .257.79l-6.064 5.911 1.431 8.346a.463.463 0 0 1-.672.488l-7.5-3.94-7.5 3.94a.467.467 0 0 1-.203.054zM1.459 9.852l5.566 5.426a.463.463 0 0 1 .133.41l-1.314 7.661 6.881-3.617a.461.461 0 0 1 .431 0l6.88 3.617-1.313-7.666a.464.464 0 0 1 .133-.41l5.566-5.426-7.692-1.113a.463.463 0 0 1-.349-.253l-3.44-6.97L9.5 8.483a.463.463 0 0 1-.349.253z" fill="#7b7373"/></svg>