<svg xmlns="http://www.w3.org/2000/svg" width="21" height="21" viewBox="0 0 21 21"><defs><style>.a{fill:#fff;}</style></defs><path class="a" d="M10.5,0A10.5,10.5,0,1,0,21,10.5,10.512,10.512,0,0,0,10.5,0Zm0,19.8a9.3,9.3,0,1,1,9.3-9.3A9.309,9.309,0,0,1,10.5,19.8Z"/><path class="a" d="M117.532,71.952h-1.471A2.123,2.123,0,0,0,113.878,74v1.555h-1.37a.584.584,0,1,0,0,1.166h1.37v5.4a.622.622,0,0,0,1.241,0v-5.4h2.12a.584.584,0,1,0,0-1.166h-2.12V74a.916.916,0,0,1,.942-.885h1.471a.584.584,0,1,0,0-1.166Z" transform="translate(-104.52 -66.992)"/></svg>