<svg xmlns="http://www.w3.org/2000/svg" width="21" height="21" viewBox="0 0 21 21"><defs><style>.a{fill:#fff;}</style></defs><path class="a" d="M10.5,0A10.5,10.5,0,1,0,21,10.5,10.512,10.512,0,0,0,10.5,0Zm0,19.8a9.3,9.3,0,1,1,9.3-9.3A9.309,9.309,0,0,1,10.5,19.8Z"/><path class="a" d="M89.431,80.326h-7.2a1.2,1.2,0,0,0-1.194,1.2v7.31a1.2,1.2,0,0,0,1.194,1.2h7.2a1.2,1.2,0,0,0,1.194-1.2v-7.31A1.2,1.2,0,0,0,89.431,80.326Zm.063,8.507a.063.063,0,0,1-.063.063h-7.2a.063.063,0,0,1-.063-.063v-7.31a.063.063,0,0,1,.063-.063h7.2a.063.063,0,0,1,.063.063Z" transform="translate(-75.33 -74.678)"/><rect class="a" width="1.655" height="1.518" transform="translate(12.078 7.366)"/><circle class="a" cx="1.632" cy="1.632" r="1.632" transform="translate(8.868 9.362)"/><path class="a" d="M116.821,151.571a2.6,2.6,0,0,1-5.2,0l0-1.16h-1.164v4.316h7.526v-4.316h-1.154Z" transform="translate(-103.719 -140.792)"/></svg>