<svg xmlns="http://www.w3.org/2000/svg" width="17.76" height="24.42" viewBox="0 0 17.76 24.42"><defs><style>.a{fill:#7b7373;}</style></defs><path class="a" d="M21.587,26.225H4.548a.359.359,0,0,1-.261-.112.366.366,0,0,1-.1-.267L5,8.72a.361.361,0,0,1,.361-.345H20.776a.362.362,0,0,1,.361.345l.811,17.125a.362.362,0,0,1-.361.38ZM4.926,25.5H21.208L20.432,9.1H5.7Z" transform="translate(-4.188 -1.805)"/><path class="a" d="M19.467,8.923a.392.392,0,0,1-.392-.392v-3.9a3.848,3.848,0,1,0-7.7,0v3.9a.392.392,0,1,1-.784,0v-3.9a4.632,4.632,0,1,1,9.265,0v3.9A.392.392,0,0,1,19.467,8.923Z" transform="translate(-6.347)"/></svg>