<svg version="1.1" xmlns="http://www.w3.org/2000/svg" xmlns:xlink="http://www.w3.org/1999/xlink">
<defs>
<symbol id="icon-shopping-bag" viewBox="0 0 23 32">
<title>shopping-bag</title>
<path d="M22.8 32h-22.328c-0 0-0 0-0.001 0-0.134 0-0.255-0.056-0.341-0.147l-0-0c-0.081-0.086-0.131-0.202-0.131-0.33 0-0.007 0-0.014 0-0.021l-0 0.001 1.065-22.442c0.012-0.252 0.219-0.452 0.473-0.452 0 0 0 0 0 0h20.2c0.254 0 0.461 0.2 0.473 0.451l0 0.001 1.063 22.441c0 0.007 0.001 0.015 0.001 0.024 0 0.262-0.212 0.474-0.474 0.474h-0zM0.967 31.050h21.336l-1.017-21.491h-19.305z"></path>
<path d="M17.192 11.693c-0.284 0-0.514-0.23-0.514-0.514v0-5.111c0-2.786-2.259-5.045-5.045-5.045s-5.045 2.259-5.045 5.045v0 5.111c0 0.284-0.23 0.514-0.514 0.514s-0.514-0.23-0.514-0.514v0-5.111c0-3.353 2.718-6.070 6.070-6.070s6.070 2.718 6.070 6.070v0 5.111c0 0 0 0 0 0 0 0.282-0.228 0.511-0.51 0.514h-0z"></path>
</symbol>
<symbol id="icon-search" viewBox="0 0 32 32">
<title>search</title>
<path d="M23.734 12.533c0-6.156-4.99-11.146-11.146-11.146s-11.146 4.99-11.146 11.146c0 6.156 4.99 11.146 11.146 11.146v0c0.001 0 0.003 0 0.004 0 6.153 0 11.142-4.988 11.142-11.142 0-0.002 0-0.003 0-0.005v0zM32 31.039l-0.959 0.959-10.133-10.133c-2.207 1.986-5.142 3.2-8.36 3.2-6.915 0-12.52-5.605-12.52-12.52s5.605-12.52 12.52-12.52c6.915 0 12.52 5.605 12.52 12.52 0 3.219-1.215 6.153-3.21 8.371l0.010-0.011z"></path>
</symbol>
<symbol id="icon-star" viewBox="0 0 34 32">
<title>star</title>
<path d="M6.785 31.999c-0.332-0-0.601-0.269-0.601-0.601 0-0.036 0.003-0.072 0.009-0.106l-0.001 0.004 1.852-10.83-7.864-7.67c-0.112-0.109-0.182-0.262-0.182-0.43 0-0.302 0.222-0.551 0.512-0.594l0.003-0 10.874-1.581 4.864-9.854c0.1-0.2 0.304-0.335 0.538-0.335v0c0 0 0.001 0 0.001 0 0.234 0 0.437 0.135 0.536 0.331l0.002 0.003 4.86 9.854 10.874 1.581c0.293 0.043 0.515 0.293 0.515 0.595 0 0.169-0.070 0.321-0.182 0.43l-0 0-7.869 7.67 1.857 10.83c0.006 0.031 0.009 0.066 0.009 0.102 0 0.332-0.269 0.601-0.601 0.601-0.102 0-0.199-0.026-0.283-0.071l0.003 0.002-9.732-5.113-9.732 5.113c-0.076 0.041-0.167 0.067-0.262 0.070l-0.001 0zM1.893 12.784l7.223 7.041c0.112 0.109 0.181 0.262 0.181 0.43 0 0.036-0.003 0.071-0.009 0.106l0.001-0.004-1.705 9.941 8.929-4.694c0.081-0.044 0.177-0.069 0.28-0.069s0.199 0.026 0.283 0.071l-0.003-0.002 8.928 4.694-1.704-9.948c-0.005-0.030-0.009-0.066-0.009-0.102 0-0.169 0.069-0.321 0.181-0.43l7.223-7.041-9.982-1.444c-0.2-0.030-0.365-0.154-0.451-0.325l-0.002-0.003-4.464-9.045-4.465 9.047c-0.088 0.175-0.253 0.299-0.45 0.328l-0.003 0z"></path>
</symbol>
<symbol id="icon-user" viewBox="0 0 32 32">
<title>user</title>
<path d="M32 16c0-0.002 0-0.005 0-0.008 0-8.837-7.163-16-16-16s-16 7.163-16 16c0 4.665 1.996 8.863 5.181 11.788l0.012 0.011-0.015 0.013 0.513 0.437c0.033 0.028 0.071 0.051 0.104 0.079 0.276 0.228 0.561 0.446 0.852 0.656 0.095 0.068 0.188 0.136 0.284 0.202q0.466 0.322 0.955 0.61l0.214 0.128c0.356 0.202 0.722 0.395 1.094 0.57l0.082 0.037c1.117 0.533 2.414 0.958 3.773 1.21l0.098 0.015 0.108 0.019c0.422 0.073 0.847 0.128 1.282 0.17l0.158 0.013c0.429 0.036 0.864 0.058 1.303 0.058s0.866-0.023 1.293-0.056l0.163-0.013q0.641-0.059 1.267-0.167l0.109-0.019c1.436-0.262 2.715-0.676 3.912-1.237l-0.097 0.041 0.128-0.060q0.538-0.256 1.053-0.545l0.256-0.147c0.313-0.185 0.62-0.377 0.92-0.582 0.108-0.073 0.213-0.151 0.319-0.228 0.256-0.183 0.506-0.373 0.75-0.572 0.054-0.044 0.113-0.082 0.165-0.128l0.532-0.445-0.015-0.013c3.229-2.931 5.248-7.145 5.248-11.831 0-0.003 0-0.006 0-0.009v0zM1.164 16c0-0.004 0-0.008 0-0.012 0-8.194 6.642-14.836 14.836-14.836s14.836 6.642 14.836 14.836c0 4.411-1.925 8.373-4.982 11.091l-0.015 0.013c-0.148-0.105-0.318-0.209-0.495-0.301l-0.024-0.011-4.926-2.463c-0.427-0.215-0.716-0.651-0.716-1.153v-1.726c0.114-0.141 0.235-0.3 0.359-0.475 0.611-0.858 1.127-1.844 1.497-2.898l0.025-0.083c0.723-0.346 1.214-1.071 1.214-1.911 0-0.001 0-0.001 0-0.002v0-2.063c-0.001-0.528-0.195-1.011-0.515-1.382l0.002 0.003v-2.714c0.010-0.114 0.015-0.246 0.015-0.379 0-1.159-0.42-2.22-1.117-3.039l0.006 0.007c-1.18-1.156-2.798-1.87-4.582-1.87-0.203 0-0.405 0.009-0.603 0.027l0.026-0.002c-0.175-0.017-0.378-0.026-0.583-0.026-1.784 0-3.402 0.713-4.583 1.87l0.001-0.001c-0.694 0.813-1.116 1.876-1.116 3.038 0 0.132 0.005 0.263 0.016 0.392l-0.001-0.017v2.714c-0.318 0.368-0.512 0.851-0.513 1.379v2.062c0 0 0 0.001 0 0.001 0 0.66 0.302 1.25 0.775 1.638l0.004 0.003c0.385 1.42 1.001 2.66 1.814 3.745l-0.020-0.028v1.684c-0 0.489-0.271 0.915-0.67 1.136l-0.007 0.003-4.588 2.511c-0.17 0.094-0.312 0.185-0.449 0.285l0.012-0.008c-3.035-2.722-4.935-6.656-4.935-11.033 0-0 0-0.001 0-0.001v0zM24.703 28.004q-0.305 0.222-0.62 0.428c-0.096 0.063-0.192 0.128-0.291 0.187-0.274 0.17-0.554 0.332-0.839 0.483l-0.19 0.097c-0.561 0.297-1.232 0.587-1.926 0.827l-0.104 0.031-0.074 0.026q-0.547 0.182-1.107 0.322v0c-0.377 0.094-0.759 0.17-1.143 0.235h-0.032c-0.361 0.059-0.725 0.101-1.091 0.128l-0.195 0.014c-0.361 0.027-0.724 0.045-1.089 0.045s-0.737-0.018-1.102-0.045l-0.19-0.014c-0.369-0.032-0.736-0.076-1.1-0.136l-0.051-0.004c-0.87-0.147-1.632-0.344-2.367-0.596l0.104 0.031-0.069-0.023q-0.549-0.187-1.083-0.415h-0.008c-0.336-0.145-0.666-0.305-0.992-0.474l-0.128-0.065c-0.297-0.159-0.588-0.331-0.875-0.513l-0.256-0.163c-0.264-0.173-0.525-0.352-0.778-0.543l-0.077-0.060 0.056-0.032 4.601-2.509c0.769-0.426 1.282-1.233 1.282-2.16 0-0 0-0.001 0-0.001v0-2.088l-0.128-0.161c-0.794-1.020-1.397-2.231-1.731-3.549l-0.014-0.067-0.053-0.231-0.199-0.128c-0.27-0.173-0.446-0.471-0.447-0.81v-2.069c0.001-0.283 0.126-0.537 0.323-0.71l0.001-0.001 0.192-0.173v-3.317c-0.007-0.084-0.011-0.181-0.011-0.279 0-0.862 0.311-1.652 0.828-2.262l-0.004 0.005c0.977-0.913 2.293-1.473 3.739-1.473 0.189 0 0.375 0.010 0.559 0.028l-0.023-0.002c0.162-0.017 0.351-0.027 0.541-0.027 1.443 0 2.756 0.556 3.736 1.465l-0.004-0.003c0.517 0.614 0.831 1.414 0.831 2.287 0 0.092-0.003 0.183-0.010 0.274l0.001-0.012v3.317l0.192 0.173c0.198 0.174 0.323 0.428 0.324 0.711v2.062c-0.006 0.43-0.29 0.792-0.68 0.914l-0.007 0.002-0.29 0.088-0.094 0.288c-0.361 1.117-0.854 2.087-1.474 2.962l0.022-0.033c-0.152 0.215-0.301 0.406-0.428 0.552l-0.145 0.164v2.152c0 0.003 0 0.006 0 0.009 0 0.955 0.547 1.783 1.346 2.185l0.014 0.006 5.020 2.512c-0.067 0.049-0.131 0.092-0.194 0.137z"></path>
</symbol>
</defs>
</svg>
