<svg version="1.1" xmlns="http://www.w3.org/2000/svg" xmlns:xlink="http://www.w3.org/1999/xlink">
<defs>
<symbol id="icon-instagram" viewBox="0 0 32 32">
<title>instagram</title>
<path d="M16 0c-8.837 0-16 7.163-16 16s7.163 16 16 16c8.837 0 16-7.163 16-16v0c-0.010-8.832-7.168-15.99-15.999-16h-0.001zM16 30.171c-7.827 0-14.171-6.345-14.171-14.171s6.345-14.171 14.171-14.171c7.827 0 14.171 6.345 14.171 14.171v0c-0.008 7.824-6.348 14.164-14.171 14.171h-0.001z"></path>
<path d="M21.487 8.606h-10.971c-1.006 0.005-1.819 0.822-1.819 1.829 0 0 0 0 0 0v0 11.139c0 0 0 0 0 0 0 1.007 0.813 1.823 1.819 1.829h10.972c1.006-0.005 1.819-0.822 1.819-1.829 0 0 0-0 0-0v0-11.139c0 0 0 0 0-0 0-1.007-0.813-1.823-1.819-1.829h-0zM21.583 21.57c0 0.053-0.043 0.096-0.096 0.096h-10.971c-0.053 0-0.096-0.043-0.096-0.096v0-11.139c0-0.053 0.043-0.096 0.096-0.096v0h10.971c0.053 0 0.096 0.043 0.096 0.096v0z"></path>
<path d="M18.405 11.224h2.522v2.313h-2.522v-2.313z"></path>
<path d="M18.487 16.753c0 1.373-1.113 2.487-2.487 2.487s-2.487-1.113-2.487-2.487c0-1.373 1.113-2.487 2.487-2.487s2.487 1.113 2.487 2.487z"></path>
<path d="M19.965 16.425c0 2.188-1.774 3.962-3.962 3.962s-3.962-1.774-3.962-3.962v0-1.768h-1.774v6.577h11.468v-6.577h-1.758z"></path>
</symbol>
<symbol id="icon-facebook" viewBox="0 0 32 32">
<title>facebook</title>
<path d="M16 0c-8.837 0-16 7.163-16 16s7.163 16 16 16c8.837 0 16-7.163 16-16v0c-0.010-8.832-7.168-15.99-15.999-16h-0.001zM16 30.171c-7.827 0-14.171-6.345-14.171-14.171s6.345-14.171 14.171-14.171c7.827 0 14.171 6.345 14.171 14.171v0c-0.008 7.824-6.348 14.164-14.171 14.171h-0.001z"></path>
<path d="M19.828 7.558h-2.242c-0.028-0.001-0.061-0.001-0.093-0.001-1.747 0-3.171 1.385-3.233 3.116l-0 0.006v2.37h-2.088c-0.016-0.001-0.034-0.002-0.052-0.002-0.491 0-0.89 0.398-0.89 0.89s0.398 0.89 0.89 0.89c0.018 0 0.037-0.001 0.055-0.002l-0.002 0h2.088v8.229c0.035 0.494 0.445 0.882 0.946 0.882s0.91-0.388 0.945-0.879l0-0.003v-8.229h3.23c0.016 0.001 0.034 0.002 0.052 0.002 0.491 0 0.89-0.398 0.89-0.89s-0.398-0.89-0.89-0.89c-0.018 0-0.037 0.001-0.055 0.002l0.002-0h-3.23v-2.37c0.026-0.751 0.641-1.349 1.395-1.349 0.014 0 0.028 0 0.042 0.001l-0.002-0h2.242c0.016 0.001 0.034 0.002 0.052 0.002 0.491 0 0.89-0.398 0.89-0.89s-0.398-0.89-0.89-0.89c-0.018 0-0.037 0.001-0.055 0.002l0.002-0z"></path>
</symbol>
</defs>
</svg>
