<svg xmlns="http://www.w3.org/2000/svg" width="25.88" height="24.66" viewBox="0 0 25.88 24.66"><defs><style>.a{fill:#7b7373;}</style></defs><path class="a" d="M5.229,25.976a.463.463,0,0,1-.456-.542L6.2,17.088.14,11.177a.463.463,0,0,1,.257-.79l8.38-1.218,3.748-7.594a.463.463,0,0,1,.415-.258h0a.461.461,0,0,1,.415.258L17.1,9.169l8.38,1.218a.463.463,0,0,1,.257.79l-6.064,5.911,1.431,8.346a.463.463,0,0,1-.672.488l-7.5-3.94-7.5,3.94A.467.467,0,0,1,5.229,25.976ZM1.459,11.169l5.566,5.426a.463.463,0,0,1,.133.41L5.844,24.666l6.881-3.617a.461.461,0,0,1,.431,0l6.88,3.617L18.723,17a.464.464,0,0,1,.133-.41l5.566-5.426L16.73,10.051a.463.463,0,0,1-.349-.253l-3.44-6.97L9.5,9.8a.463.463,0,0,1-.349.253Z" transform="translate(0 -1.317)"/></svg>