<svg xmlns="http://www.w3.org/2000/svg" width="18" height="19" viewBox="0 0 18 19"><g><g><path d="M17.252 7.449l-1.827 2.61-.994-.813a.314.314 0 0 0-.513.243v8.877h-9.42V9.374a.314.314 0 0 0-.525-.232l-.98.891-1.83-2.874 3.14-1.998 2.739-.548a2.198 2.198 0 0 0 4.33 0l2.73.546zm-8.044-3.51l1.548.517a1.563 1.563 0 0 1-3.096 0zm0-1.9a.314.314 0 0 0-.314.314v1.03l-1.65.55-3.123.624a.316.316 0 0 0-.107.042L.56 6.797a.314.314 0 0 0-.096.434l2.198 3.454a.314.314 0 0 0 .476.063l.732-.664v8.596c0 .174.14.314.314.314h10.048c.173 0 .314-.14.314-.314v-8.529l.743.608c.067.056.155.081.242.068a.311.311 0 0 0 .214-.13l2.198-3.14a.314.314 0 0 0-.073-.435L14.416 4.61a.311.311 0 0 0-.122-.053l-3.122-.625-1.65-.55v-.76a1.254 1.254 0 1 0-1.57-1.211.314.314 0 0 0 .628 0 .628.628 0 1 1 .628.628z"/></g></g></svg>