<svg xmlns="http://www.w3.org/2000/svg" width="24.97" height="24.97" viewBox="0 0 24.97 24.97"><defs><style>.a{fill:#7b7373;}</style></defs><path class="a" d="M24.97,12.485a12.485,12.485,0,1,0-20.918,9.2l-.012.01.4.341c.026.022.055.04.081.062.215.178.438.348.665.512.074.053.147.106.222.158q.364.251.745.476l.167.1c.278.158.563.308.854.445l.064.029a12.373,12.373,0,0,0,3.02.956l.084.015c.329.057.661.1,1,.133l.123.01c.335.028.674.045,1.017.045s.676-.018,1.009-.044l.127-.01q.5-.046.989-.13l.085-.015a12.372,12.372,0,0,0,2.977-.933l.1-.047q.42-.2.822-.425l.2-.115c.244-.144.484-.294.718-.454.084-.057.166-.118.249-.178.2-.143.395-.291.585-.446.042-.034.088-.064.129-.1l.415-.347-.012-.01A12.453,12.453,0,0,0,24.97,12.485Zm-24.062,0A11.577,11.577,0,1,1,20.163,21.14a3.4,3.4,0,0,0-.405-.244l-3.844-1.922a1.006,1.006,0,0,1-.559-.9V16.727c.089-.11.183-.234.28-.371a9.252,9.252,0,0,0,1.188-2.326,1.648,1.648,0,0,0,.947-1.493V10.927a1.652,1.652,0,0,0-.4-1.076V7.733a3.662,3.662,0,0,0-.855-2.662,5.11,5.11,0,0,0-4.026-1.439A5.112,5.112,0,0,0,8.459,5.07,3.662,3.662,0,0,0,7.6,7.733V9.851a1.654,1.654,0,0,0-.4,1.076v1.609a1.652,1.652,0,0,0,.608,1.281,8.531,8.531,0,0,0,1.4,2.9v1.314a1.013,1.013,0,0,1-.528.889L5.1,20.879a3.281,3.281,0,0,0-.341.216A11.549,11.549,0,0,1,.908,12.485Zm18.368,9.367q-.238.173-.484.334c-.075.049-.15.1-.227.146-.214.133-.432.259-.655.377l-.148.076a11.569,11.569,0,0,1-1.584.67l-.058.02q-.427.142-.864.251h0c-.294.073-.592.133-.892.183l-.025,0c-.282.046-.566.079-.851.1l-.152.011c-.282.021-.565.035-.85.035s-.575-.014-.86-.035l-.148-.011c-.288-.025-.574-.059-.858-.106L10.58,23.9a11.534,11.534,0,0,1-1.766-.441l-.054-.018q-.428-.146-.845-.324l-.006,0c-.262-.113-.52-.238-.774-.37l-.1-.051c-.232-.124-.459-.258-.683-.4l-.2-.127c-.206-.135-.41-.275-.607-.424l-.06-.047.044-.025,3.59-1.958a1.92,1.92,0,0,0,1-1.686V16.4l-.1-.126a7.58,7.58,0,0,1-1.362-2.822l-.041-.18-.155-.1a.752.752,0,0,1-.349-.632V10.926a.741.741,0,0,1,.253-.555l.15-.135V7.707l0-.059a2.734,2.734,0,0,1,.634-1.979A4.278,4.278,0,0,1,12.485,4.54,4.289,4.289,0,0,1,15.82,5.66a2.78,2.78,0,0,1,.641,1.989l0,2.588.15.135a.742.742,0,0,1,.253.555v1.609a.758.758,0,0,1-.536.715l-.226.069-.073.225a8.4,8.4,0,0,1-1.133,2.285c-.119.168-.235.317-.334.431l-.113.128v1.679a1.909,1.909,0,0,0,1.061,1.717l3.844,1.922.073.038C19.375,21.783,19.325,21.817,19.276,21.852Z"/></svg>